<?xml version="1.0" encoding="UTF-8" standalone="no"?>
<!-- Created with Inkscape (http://www.inkscape.org/) -->

<svg
   width="177.93764mm"
   height="177.93765mm"
   viewBox="0 0 630.48769 630.48774"
   id="svg2"
   version="1.1"
   inkscape:version="1.2.1 (9c6d41e410, 2022-07-14, custom)"
   sodipodi:docname="inkVerb-disk-white.svg"
   xmlns:inkscape="http://www.inkscape.org/namespaces/inkscape"
   xmlns:sodipodi="http://sodipodi.sourceforge.net/DTD/sodipodi-0.dtd"
   xmlns="http://www.w3.org/2000/svg"
   xmlns:svg="http://www.w3.org/2000/svg"
   xmlns:rdf="http://www.w3.org/1999/02/22-rdf-syntax-ns#"
   xmlns:cc="http://creativecommons.org/ns#"
   xmlns:dc="http://purl.org/dc/elements/1.1/">
  <defs
     id="defs4" />
  <sodipodi:namedview
     id="base"
     pagecolor="#ffffff"
     bordercolor="#666666"
     borderopacity="1.0"
     inkscape:pageopacity="0.0"
     inkscape:pageshadow="2"
     inkscape:zoom="0.80960718"
     inkscape:cx="290.88181"
     inkscape:cy="353.25774"
     inkscape:document-units="px"
     inkscape:current-layer="g3411"
     showgrid="false"
     inkscape:window-width="1920"
     inkscape:window-height="1047"
     inkscape:window-x="0"
     inkscape:window-y="0"
     inkscape:window-maximized="1"
     showguides="true"
     inkscape:guide-bbox="true"
     inkscape:snap-path-mask="true"
     inkscape:snap-path-clip="true"
     objecttolerance="20"
     inkscape:snap-perpendicular="true"
     inkscape:snap-tangential="true"
     inkscape:snap-others="true"
     inkscape:snap-object-midpoints="true"
     inkscape:snap-bbox="true"
     inkscape:snap-bbox-midpoints="false"
     inkscape:object-paths="false"
     inkscape:snap-midpoints="false"
     inkscape:snap-bbox-edge-midpoints="false"
     inkscape:bbox-paths="false"
     inkscape:bbox-nodes="false"
     inkscape:snap-intersection-paths="false"
     inkscape:object-nodes="false"
     inkscape:snap-smooth-nodes="false"
     inkscape:snap-center="true"
     inkscape:snap-global="true"
     inkscape:snap-nodes="false"
     fit-margin-top="2"
     fit-margin-left="2"
     fit-margin-right="2"
     fit-margin-bottom="2"
     inkscape:showpageshadow="2"
     inkscape:pagecheckerboard="0"
     inkscape:deskcolor="#d1d1d1" />
  <metadata
     id="metadata7">
    <rdf:RDF>
      <cc:Work
         rdf:about="">
        <dc:format>image/svg+xml</dc:format>
        <dc:type
           rdf:resource="http://purl.org/dc/dcmitype/StillImage" />
        <dc:title />
      </cc:Work>
    </rdf:RDF>
  </metadata>
  <g
     inkscape:label="whitedisk"
     id="g3411"
     inkscape:groupmode="layer"
     style="display:inline"
     transform="translate(-244.88995,-60.354792)">
    <path
       style="display:inline;fill:#ffffff;fill-opacity:1;fill-rule:nonzero;stroke:none;stroke-width:18.75;stroke-linecap:butt;stroke-linejoin:miter;stroke-miterlimit:4;stroke-dasharray:none;stroke-opacity:1"
       d="m 251.97654,375.59964 a 308.15698,308.15698 0 0 0 249.58789,302.28125 c 10.38936,-21.91247 32.70591,-37.07052 58.56836,-37.07032 v 42.94532 a 308.15698,308.15698 0 0 0 0.002,0 v -42.94532 c 25.91084,-2e-4 48.25903,15.21652 58.62305,37.19532 A 308.15698,308.15698 0 0 0 868.29104,375.59964 308.15698,308.15698 0 0 0 858.24026,300.09183 90.366791,90.366791 0 0 1 845.87893,301.043 90.366791,90.366791 0 0 1 755.51174,210.67776 90.366791,90.366791 0 0 1 774.7969,155.0469 308.15698,308.15698 0 0 0 560.13284,67.441428 308.15698,308.15698 0 0 0 345.69143,155.22464 a 90.366791,90.366791 0 0 1 19.06445,55.45312 90.366791,90.366791 0 0 1 -90.36718,90.36524 90.366791,90.366791 0 0 1 -12.51563,-0.97852 308.15698,308.15698 0 0 0 -9.89648,75.53516 z m 56.16797,124.85742 C 372.09143,448.23451 483.07886,325.89232 485.84177,104.27347 a 281.36072,281.36072 0 0 1 61.10352,-9.367192 V 312.24222 a 64.788544,64.788544 0 0 0 -51.60157,63.35742 64.788544,64.788544 0 0 0 64.78907,64.78906 64.788544,64.788544 0 0 0 64.78906,-64.78906 64.788544,64.788544 0 0 0 -51.60156,-63.41797 V 94.691428 a 281.36072,281.36072 0 0 1 61.10351,9.582042 c 2.76291,221.6193 113.75236,343.96122 177.69922,396.18359 a 281.36072,281.36072 0 0 1 -78.60156,96.20508 204.85991,204.85991 0 0 0 -173.38867,-95.92188 204.85991,204.85991 0 0 0 -173.25,95.99024 281.36072,281.36072 0 0 1 -78.73828,-96.27344 z M 408.3574,612.49612 a 178.20091,178.20091 0 0 1 151.77539,-85.09765 178.20091,178.20091 0 0 1 151.5625,84.89843 281.36072,281.36072 0 0 1 -82.1211,35.59571 90.366791,90.366791 0 0 0 -69.4414,-32.66016 90.366791,90.366791 0 0 0 -69.57422,32.75195 281.36072,281.36072 0 0 1 -82.20117,-35.48828 z"
       id="path3417"
       inkscape:connector-curvature="0" />
  </g>
</svg>
